<?xml version="1.0" standalone="no"?>
<!DOCTYPE svg PUBLIC "-//W3C//DTD SVG 20010904//EN"
 "http://www.w3.org/TR/2001/REC-SVG-20010904/DTD/svg10.dtd">
<svg version="1.0" xmlns="http://www.w3.org/2000/svg"
 width="194.000000pt" height="194.000000pt" viewBox="0 0 194.000000 194.000000"
 preserveAspectRatio="xMidYMid meet">
<metadata>
Created by potrace 1.14, written by Peter Selinger 2001-2017
</metadata>
<g transform="translate(0.000000,194.000000) scale(0.100000,-0.100000)"
fill="#000000" stroke="none">
<path d="M927 1935 c-1 -2 -29 -5 -62 -8 -283 -27 -552 -191 -708 -434 -79
-121 -112 -207 -144 -368 -16 -86 -13 -277 6 -345 6 -19 12 -46 15 -60 7 -39
51 -150 81 -205 172 -312 493 -504 845 -507 119 -1 240 21 355 65 317 121 549
403 605 735 12 75 20 252 11 252 -4 0 -7 15 -7 33 -4 89 -59 256 -119 359
-152 259 -428 441 -720 474 -50 5 -154 11 -158 9z"/>
</g>
</svg>
